<?xml version="1.0" encoding="UTF-8"?>
<svg width="143px" height="81px" viewBox="0 0 143 81" version="1.1" xmlns="http://www.w3.org/2000/svg" xmlns:xlink="http://www.w3.org/1999/xlink">
    <!-- Generator: Sketch 63.1 (92452) - https://sketch.com -->
    <title>Lieferservicede</title>
    <desc>Created with Sketch.</desc>
    <g id="Lieferservice" stroke="none" stroke-width="1" fill="none" fill-rule="evenodd">
        <g id="Lieferservicede" transform="translate(-116.000000, -118.000000)" fill="#FF8000">
            <g id="Modal" transform="translate(15.000000, 85.000000)">
                <g id="Lieferservicede" transform="translate(101.000000, 33.000000)">
                    <g id="Group-37" transform="translate(0.000000, 0.190470)">
                        <path d="M119.076765,78.0936131 C118.730288,78.0936131 118.450584,78.2123874 118.233651,78.449013 C118.018565,78.6877926 117.911176,78.9564195 117.911176,79.2601249 C117.911176,79.5616764 118.018565,79.8306111 118.233651,80.0681598 C118.450584,80.3057085 118.730288,80.4244828 119.076765,80.4244828 C119.420779,80.4244828 119.702946,80.3057085 119.917724,80.0681598 C120.133733,79.8306111 120.240199,79.5616764 120.240199,79.2601249 C120.240199,78.9564195 120.133733,78.6877926 119.917724,78.449013 C119.702946,78.2123874 119.420779,78.0936131 119.076765,78.0936131" id="Fill-1"></path>
                        <path d="M92.0773852,69.3907148 L90.2548451,69.3907148 C89.8499046,69.4011768 89.5046589,69.6605726 89.3680376,70.0242806 L89.3680376,70.0221266 L89.3529601,70.0676671 C89.3529601,70.0676671 89.3508061,70.0738212 89.3495753,70.0759751 L89.2501864,70.3639875 L87.2787168,75.9596134 C87.2611776,76.0374629 87.1940978,76.095927 87.1134789,76.095927 C87.0347063,76.095927 86.9719343,76.0463864 86.9479333,75.9780757 L86.9297787,75.9226887 L84.6976824,70.0242806 C84.5610612,69.6605726 84.2179694,69.4011768 83.810875,69.3907148 L81.7421704,69.3907148 C81.4756974,69.3919456 81.2606112,69.6067241 81.256611,69.872274 C81.2584572,69.9279687 81.2698423,69.9808941 81.2892278,70.0304347 L85.0724678,79.7250065 C85.2118584,80.0702522 85.5438728,80.3151858 85.935582,80.3318019 L88.0516732,80.3318019 C88.4424593,80.3151858 88.775089,80.069329 88.9157104,79.7250065 L88.9157104,79.7274681 L88.9175567,79.718237 L92.5404821,70.0002795 C92.5549443,69.959047 92.5623292,69.9168913 92.5632523,69.872274 C92.5601753,69.6067241 92.344166,69.3919456 92.0773852,69.3907148" id="Fill-3"></path>
                        <path d="M21.9791322,73.3866717 L18.2885116,73.3866717 C18.1605061,73.3857486 18.0555785,73.2845134 18.0481935,73.1562002 C18.0768101,72.9835774 18.1263507,72.8161856 18.2017386,72.6527939 C18.3060508,72.4192454 18.455288,72.2149289 18.6482194,72.037075 C18.8386891,71.8592212 19.0682375,71.7155227 19.3377876,71.6010562 C19.6054914,71.488436 19.9175049,71.4315105 20.2738279,71.4315105 C20.8544684,71.4315105 21.3271041,71.6229033 21.6954277,72.0050737 C22.0108259,72.3315493 22.1843718,72.7171044 22.2203734,73.157431 C22.2120653,73.2845134 22.1080609,73.3857486 21.9791322,73.3866717 M24.1069163,70.6142445 C23.6893598,70.1397625 23.1788763,69.7742083 22.5766965,69.5200434 C21.9760552,69.2637247 21.3058724,69.1375654 20.569533,69.1375654 C19.7759603,69.1375654 19.0288512,69.2637247 18.3282056,69.5200434 C17.6272523,69.7742083 17.0186107,70.1397625 16.5007422,70.6142445 C15.9847199,71.0884188 15.5776255,71.6589049 15.2800742,72.3232412 C14.9828306,72.9900392 14.8335934,74.0408537 14.8335934,74.8624276 C14.8335934,75.6827707 14.9828306,76.7335852 15.2800742,77.3991524 C15.5776255,78.0644118 15.9847199,78.634898 16.5007422,79.10938 C17.0186107,79.5826311 17.6272523,79.9481854 18.3282056,80.2023502 C19.0288512,80.4586689 19.7759603,80.5869821 20.569533,80.5869821 C21.4046459,80.5869821 22.2132962,80.4091283 22.9917913,80.0537284 C23.6044331,79.7758702 24.1324558,79.405085 24.5801674,78.9407573 C24.745713,78.7536723 24.7417129,78.4705832 24.5706286,78.2856521 L23.1250278,77.2256064 C23.1250278,77.2256064 23.1228738,77.2234525 23.1210276,77.2234525 L23.0170231,77.1480646 C22.8320921,77.0428293 22.593928,77.0674458 22.4351519,77.2256064 C22.2277583,77.453924 22.001287,77.6511632 21.7486608,77.8136318 C21.3874144,78.0471803 20.9443184,78.1647238 20.4215266,78.1647238 C19.797192,78.1647238 19.2744002,77.9831776 18.8491511,77.6225466 C18.4626729,77.2945325 18.0958879,76.5671165 18.0312697,75.7904676 C18.0334236,75.6704625 18.1198889,75.5732275 18.2322014,75.5535343 L24.9524912,75.5535343 C25.2081945,75.5390722 25.4128187,75.329217 25.4140496,75.0701289 L25.4140496,74.5544143 C25.4140496,73.7337636 25.3008139,72.9900392 25.0740349,72.3232412 C24.8466405,71.6589049 24.5238573,71.0884188 24.1069163,70.6142445" id="Fill-5"></path>
                        <path d="M105.112193,77.3237337 C104.924185,77.152034 104.634634,77.1501878 104.447857,77.3298879 L104.446626,77.3298879 C104.349391,77.4083528 104.25031,77.4797405 104.138613,77.5468203 C103.884448,77.702827 103.580435,77.7803688 103.224112,77.7803688 C102.419154,77.7803688 101.790819,77.5406662 101.344646,77.056953 C100.898166,76.5753938 100.676925,75.6411997 100.676925,74.8602429 C100.676925,74.0832863 100.898166,73.1426304 101.344646,72.662302 C101.790819,72.1807428 102.419154,71.940117 103.224112,71.940117 C103.551818,71.940117 103.855524,72.0142741 104.138613,72.1632036 C104.260464,72.2262832 104.368161,72.2976709 104.465089,72.374905 L104.467242,72.3730588 C104.65125,72.5496818 104.938647,72.5484509 105.125425,72.3822899 L106.560871,70.8736095 L106.556563,70.8714556 C106.740571,70.6803704 106.736571,70.3797421 106.550717,70.1914262 C106.135007,69.8517193 105.669756,69.6024778 105.149426,69.4415478 C104.475551,69.2369235 103.834908,69.1335345 103.224112,69.1335345 C102.432693,69.1335345 101.685584,69.26154 100.984938,69.5178587 C100.282447,69.7711004 99.6725742,70.1375778 99.1568597,70.6111366 C98.6392989,71.0856186 98.2322044,71.6557971 97.9334223,72.3210565 C97.6371018,72.9887776 97.4881723,74.040823 97.4881723,74.8602429 C97.4881723,75.6827399 97.6371018,76.7326313 97.9334223,77.3978908 C98.2322044,78.0634579 98.6392989,78.6339441 99.1568597,79.1093492 C99.6725742,79.5826004 100.282447,79.9481546 100.984938,80.2035502 C101.685584,80.4586381 102.432693,80.5869514 103.224112,80.5869514 C103.834908,80.5869514 104.475551,80.4826392 105.149426,80.2789381 C105.674371,80.1177004 106.147315,79.8613816 106.565179,79.5155205 C106.737494,79.3312049 106.740571,79.0475004 106.573179,78.8579537 L105.112193,77.3237337 Z" id="Fill-7"></path>
                        <path d="M32.708241,69.3897917 L31.0626315,69.3897917 C30.9349337,69.3854838 30.834314,69.2830178 30.8281599,69.1550123 L30.8281599,68.3666706 C30.8281599,67.686949 30.9561654,67.2361604 31.2097148,67.017074 C31.4651104,66.7979876 31.849127,66.6875213 32.358072,66.6875213 L33.0734875,66.6875213 C33.3334987,66.6813672 33.5411999,66.4733582 33.5473541,66.213347 L33.5473541,64.4874265 C33.5411999,64.2231074 33.3251906,64.0101751 33.061487,64.0101751 L31.6774273,64.0101751 C30.8130823,64.0101751 30.1155138,64.1197183 29.584414,64.3397278 C29.052391,64.5588142 28.6462197,64.8594425 28.3625151,65.2419205 C28.0788106,65.6253217 27.8880331,66.0674946 27.7889519,66.5709009 C27.6892553,67.0739995 27.6406379,67.6094072 27.6406379,68.1746624 L27.6406379,69.1830135 C27.6227909,69.2987108 27.5267868,69.3854838 27.4080124,69.3897917 L26.015337,69.3897917 C25.7544027,69.3937919 25.5445475,69.60057 25.5374703,69.858735 L25.5374703,71.4689582 C25.5445475,71.7271232 25.7531719,71.9329782 26.01226,71.9400555 L27.4015506,71.9400555 C27.5194019,71.9400555 27.6163291,72.0228283 27.6406379,72.1320638 L27.6406379,79.8450117 C27.6406379,80.1074845 27.8486468,80.3201091 28.1083503,80.3308788 L30.3604474,80.3308788 C30.6161508,80.3201091 30.8213904,80.1145618 30.8281599,79.8563968 L30.8281599,72.1342177 C30.8481608,72.0265207 30.9410878,71.9440557 31.0552466,71.9400555 L32.711318,71.9400555 C32.9697907,71.9329782 33.1768765,71.7271232 33.1867231,71.4689582 L33.1867231,69.8578119 C33.1768765,69.60057 32.9676368,69.3937919 32.708241,69.3897917" id="Fill-9"></path>
                        <path d="M12.2171113,64.2892333 C11.7072432,64.2892333 11.2699936,64.4689334 10.9093627,64.8307951 C10.5493471,65.1923492 10.3684163,65.628368 10.3684163,66.1379284 C10.3684163,66.6471811 10.5493471,67.0831999 10.9093627,67.4429077 C11.2699936,67.8066157 11.7072432,67.9866235 12.2171113,67.9866235 C12.7260564,67.9866235 13.1620752,67.8066157 13.5227061,67.4429077 C13.8848756,67.0831999 14.0645756,66.6471811 14.0645756,66.1379284 C14.0645756,65.628368 13.8848756,65.1923492 13.5227061,64.8307951 C13.1620752,64.4689334 12.7260564,64.2892333 12.2171113,64.2892333" id="Fill-11"></path>
                        <path d="M13.3248822,69.3897917 L11.1087866,69.3897917 C10.8460061,69.3897917 10.6321507,69.5984161 10.6223041,69.8578119 L10.6223041,79.8625509 C10.6321507,80.1197928 10.8413905,80.3265709 11.1004786,80.3308788 L13.3319594,80.3308788 C13.592586,80.3265709 13.8012104,80.1197928 13.8104416,79.8625509 L13.8104416,69.8578119 C13.8012104,69.5984161 13.587355,69.3897917 13.3248822,69.3897917" id="Fill-13"></path>
                        <path d="M51.5685926,69.1364885 L50.9737977,69.1364885 C50.2663826,69.1364885 49.6786649,69.2946491 49.2100293,69.6140475 C48.8872462,69.8352878 48.5933874,70.1346853 48.3309145,70.5079322 L48.3287606,70.5079322 C48.313683,70.5313178 48.2992208,70.5500879 48.2862972,70.5676271 C48.2862972,70.571935 48.2841433,70.5740889 48.282297,70.5790122 C48.2724505,70.5934743 48.2619885,70.6091673 48.2518342,70.6245526 C48.2195251,70.656554 48.1752155,70.680555 48.126598,70.680555 C48.041979,70.680555 47.9730529,70.6193216 47.9561291,70.5399336 L47.9561291,69.8691354 C47.952129,69.6045086 47.7361196,69.3906533 47.4705697,69.3906533 L45.2513971,69.3906533 C44.9987709,69.3906533 44.7935312,69.5838924 44.7692225,69.8297491 L44.7692225,79.8947984 C44.7935312,80.1363473 44.9926167,80.3265094 45.240012,80.3326635 L47.4834934,80.3326635 C47.7447354,80.3252785 47.955206,80.1138848 47.9561291,79.8501811 L47.9561291,75.4047587 C47.9561291,74.895506 47.9847457,74.4271781 48.041979,74.0022367 C48.0992122,73.5769876 48.2226022,73.2129719 48.4146104,72.9092665 C48.6041571,72.604638 48.8767842,72.3655507 49.2321841,72.1963127 C49.5272738,72.0535373 49.9159059,71.9710722 50.3910033,71.9495328 L50.8808706,71.9495328 L51.5605922,71.9495328 C51.8141416,71.9439941 52.0181504,71.747678 52.0372282,71.4956671 L52.0372282,69.5882002 C52.0190735,69.3401895 51.8193726,69.1435657 51.5685926,69.1364885" id="Fill-15"></path>
                        <path d="M59.7827313,74.36536 C59.3808678,74.1265805 58.9497723,73.9487267 58.4931373,73.8370296 C58.0358868,73.7256402 57.6038682,73.621328 57.2029278,73.5231699 C56.8010643,73.426858 56.4696654,73.3133147 56.2084234,73.1883862 C55.9481045,73.060073 55.817945,72.8606798 55.817945,72.590822 C55.817945,72.2625001 55.9437966,72.0298747 56.1976537,71.8944843 C56.4518185,71.7612478 56.7130605,71.6938602 56.9816875,71.6938602 C57.5857135,71.6938602 58.095274,71.8870993 58.5128304,72.2726544 C58.7002231,72.432969 58.973158,72.427738 59.1543965,72.2625001 L60.4599913,70.8922872 C60.6144595,70.7092024 60.6123056,70.4436525 60.4578374,70.2627216 C60.0421271,69.8876285 59.5605679,69.6150014 59.0103903,69.4476096 C58.3195913,69.2377544 57.6358695,69.1334422 56.9586096,69.1334422 C56.4232019,69.1334422 55.8951791,69.2039067 55.3733104,69.3454513 C54.8517495,69.4888421 54.389268,69.7100824 53.9883277,70.0097876 C53.5873873,70.308262 53.2615271,70.6907401 53.0147472,71.1535293 C52.7695059,71.6184724 52.6455005,72.1735732 52.6455005,72.8163702 C52.6455005,73.5065538 52.77566,74.0551928 53.0359789,74.4675183 C53.2975286,74.8786129 53.6286198,75.1970882 54.0295602,75.4214056 C54.4326545,75.6454152 54.8625192,75.814961 55.3206928,75.9266581 C55.7785587,76.0389707 56.2084234,76.1435906 56.6102869,76.2408255 C57.012458,76.3389836 57.3435492,76.4599119 57.6038682,76.6014564 C57.8654179,76.743001 57.9965005,76.9580872 57.9965005,77.2411763 C57.9965005,77.5396507 57.8463401,77.747352 57.5512505,77.8590491 C57.2546223,77.9704385 56.9235311,78.0273641 56.5576692,78.0273641 C56.0782639,78.0273641 55.6591689,77.9261289 55.2994611,77.7224279 C55.0591431,77.5882682 54.8329795,77.4104144 54.621278,77.1904049 C54.4252696,77.0405523 54.14895,77.0602455 53.9778657,77.2359453 L52.6624243,78.7846275 C52.5141103,78.9904825 52.5461116,79.2788027 52.7439663,79.4431174 L52.7439663,79.4440405 C53.1766004,79.8194413 53.6803144,80.0929916 54.2529545,80.2613065 C54.984986,80.4794698 55.7108635,80.5871668 56.4305868,80.5871668 C56.9816875,80.5871668 57.5361729,80.5311643 58.100505,80.4197749 C58.6642216,80.3077701 59.1719358,80.1114539 59.6230321,79.8345189 C60.0747439,79.5575839 60.4449137,79.1920297 60.7338493,78.7341638 C61.021554,78.2775287 61.166791,77.6978114 61.166791,76.9928579 C61.166791,76.3048283 61.0366315,75.7552661 60.7753895,75.3429407 C60.5147629,74.9315383 60.1836717,74.6059858 59.7827313,74.36536" id="Fill-17"></path>
                        <path d="M40.4665447,73.3866717 L36.778078,73.3866717 C36.6479185,73.3857486 36.543914,73.2845134 36.535606,73.1562002 C36.5660688,72.9835774 36.6159171,72.8161856 36.6903819,72.6527939 C36.7962326,72.4192454 36.9439313,72.2149289 37.1356318,72.037075 C37.3273324,71.8592212 37.5565731,71.7155227 37.8261231,71.6010562 C38.0947501,71.488436 38.4076867,71.4315105 38.7618558,71.4315105 C39.3428039,71.4315105 39.8154397,71.6229033 40.184071,72.0050737 C40.4994692,72.3315493 40.6717843,72.7171044 40.7077858,73.157431 C40.7004009,73.2845134 40.5967041,73.3857486 40.4665447,73.3866717 M42.5967904,70.6142445 C42.1776954,70.1397625 41.6687504,69.7742083 41.0653397,69.5200434 C40.4634676,69.2637247 39.7960542,69.1375654 39.0581763,69.1375654 C38.2655267,69.1375654 37.5174945,69.2637247 36.8168489,69.5200434 C36.1168187,69.7742083 35.5069462,70.1397625 34.990924,70.6142445 C34.4730555,71.0884188 34.065961,71.6589049 33.7674866,72.3232412 C33.4714739,72.9900392 33.321929,74.0408537 33.321929,74.8624276 C33.321929,75.6827707 33.4714739,76.7335852 33.7674866,77.3991524 C34.065961,78.0644118 34.4730555,78.634898 34.990924,79.10938 C35.5069462,79.5826311 36.1168187,79.9481854 36.8168489,80.2023502 C37.5174945,80.4586689 38.2655267,80.5869821 39.0581763,80.5869821 C39.8939046,80.5869821 40.7025549,80.4091283 41.4801268,80.0537284 C42.0930763,79.7758702 42.6220222,79.405085 43.068503,78.9407573 C43.2337409,78.7536723 43.2312793,78.4705832 43.0592718,78.2856521 L41.6136711,77.2256064 L41.6102863,77.2234525 L41.5053587,77.1480646 C41.3216585,77.0428293 41.0813404,77.0674458 40.9237952,77.2256064 C40.7160939,77.453924 40.4886995,77.6511632 40.2382271,77.8136318 C39.8769808,78.0471803 39.4338848,78.1647238 38.9089391,78.1647238 C38.2858353,78.1647238 37.7627358,77.9831776 37.3374867,77.6225466 C36.9516239,77.2945325 36.5842235,76.5671165 36.5208361,75.7904676 C36.5208361,75.6704625 36.6085322,75.5732275 36.7217678,75.5535343 L43.4411345,75.5535343 C43.6974532,75.5390722 43.901462,75.329217 43.9023851,75.0701289 L43.9023851,74.5544143 C43.9023851,73.7337636 43.7903803,72.9900392 43.5623705,72.3232412 C43.334976,71.6589049 43.0137314,71.0884188 42.5967904,70.6142445" id="Fill-19"></path>
                        <path d="M68.9030015,73.3866717 L65.2133039,73.3866717 C65.0852984,73.3857486 64.9794477,73.2845134 64.9720628,73.1562002 C65.0003717,72.9835774 65.0511431,72.8161856 65.1256078,72.6527939 C65.2308431,72.4192454 65.380388,72.2149289 65.5717809,72.037075 C65.7625584,71.8592212 65.9930298,71.7155227 66.2625799,71.6010562 C66.5315146,71.488436 66.8422972,71.4315105 67.1973895,71.4315105 C67.7780299,71.4315105 68.2518965,71.6229033 68.6192969,72.0050737 C68.9346951,72.3315493 69.1070103,72.7171044 69.1442426,73.157431 C69.1353192,73.2845134 69.0331609,73.3857486 68.9030015,73.3866717 M71.0304778,70.6142445 C70.6141522,70.1397625 70.1033609,69.7742083 69.5011811,69.5200434 C68.8996167,69.2637247 68.2297417,69.1375654 67.4934022,69.1375654 C66.7007527,69.1375654 65.9539512,69.2637247 65.2520748,69.5200434 C64.5520446,69.7742083 63.943403,70.1397625 63.4246114,70.6142445 C62.9085892,71.0884188 62.5014947,71.6589049 62.2048665,72.3232412 C61.9066998,72.9900392 61.7583857,74.0408537 61.7583857,74.8624276 C61.7583857,75.6827707 61.9066998,76.7335852 62.2048665,77.3991524 C62.5014947,78.0644118 62.9085892,78.634898 63.4246114,79.10938 C63.943403,79.5826311 64.5520446,79.9481854 65.2520748,80.2023502 C65.9539512,80.4586689 66.7007527,80.5869821 67.4934022,80.5869821 C68.3306691,80.5869821 69.1371654,80.4091283 69.9165836,80.0537284 C70.5283023,79.7758702 71.0575559,79.405085 71.503729,78.9407573 C71.6689669,78.7536723 71.6671206,78.4705832 71.4957286,78.2856521 L70.048897,77.2256064 L70.04582,77.2234525 L69.9436617,77.1480646 C69.7556536,77.0428293 69.5177972,77.0674458 69.3599442,77.2256064 C69.1516276,77.453924 68.9251563,77.6511632 68.67253,77.8136318 C68.3112836,78.0471803 67.8681876,78.1647238 67.3450881,78.1647238 C66.7219844,78.1647238 66.1979618,77.9831776 65.7739435,77.6225466 C65.3874653,77.2945325 65.0197571,76.5671165 64.9560621,75.7904676 C64.9572929,75.6704625 65.0437581,75.5732275 65.1582246,75.5535343 L71.877899,75.5535343 C72.1329869,75.5390722 72.336688,75.329217 72.3388419,75.0701289 L72.3388419,74.5544143 C72.3388419,73.7337636 72.2249908,72.9900392 71.9979041,72.3232412 C71.7714328,71.6589049 71.4480343,71.0884188 71.0304778,70.6142445" id="Fill-21"></path>
                        <path d="M80.2956465,69.1364885 L79.7002362,69.1364885 C78.9937442,69.1364885 78.4035649,69.2946491 77.937391,69.6140475 C77.6118385,69.8352878 77.3195182,70.1346853 77.0570453,70.5079322 L77.0548914,70.5079322 C77.0395061,70.5313178 77.0250439,70.5500879 77.0136588,70.5676271 C77.0115049,70.571935 77.009351,70.5740889 77.007197,70.5790122 C76.9970427,70.5934743 76.9878116,70.6091673 76.9785804,70.6245526 C76.9453482,70.656554 76.9019617,70.680555 76.8524211,70.680555 C76.7674944,70.680555 76.6976452,70.6193216 76.6828753,70.5399336 L76.6828753,69.8691354 C76.6776443,69.6045086 76.461635,69.3906533 76.1963928,69.3906533 L73.9778356,69.3906533 C73.724594,69.3906533 73.5208929,69.5838924 73.4959687,69.8297491 L73.4959687,79.8947984 C73.5208929,80.1363473 73.7184398,80.3265094 73.9655274,80.3326635 L76.2099319,80.3326635 C76.4708662,80.3252785 76.6810291,80.1138848 76.6828753,79.8501811 L76.6828753,75.4047587 C76.6828753,74.895506 76.7121074,74.4271781 76.7674944,74.0022367 C76.8234968,73.5769876 76.9484253,73.2129719 77.1398181,72.9092665 C77.3296725,72.604638 77.6026073,72.3655507 77.9580072,72.1963127 C78.2512507,72.0535373 78.6398828,71.9710722 79.1165187,71.9495328 L79.6073091,71.9495328 L80.2873384,71.9495328 C80.5393493,71.9439941 80.7448966,71.747678 80.7627436,71.4956671 L80.7627436,69.5882002 C80.7448966,69.3401895 80.5436572,69.1435657 80.2956465,69.1364885" id="Fill-23"></path>
                        <path d="M94.9368931,64.2892333 C94.4254865,64.2892333 93.98916,64.4689334 93.6297598,64.8307951 C93.2678981,65.1923492 93.0869672,65.628368 93.0869672,66.1379284 C93.0869672,66.6471811 93.2678981,67.0831999 93.6297598,67.4429077 C93.98916,67.8066157 94.4254865,67.9866235 94.9368931,67.9866235 C95.4461458,67.9866235 95.8821646,67.8066157 96.2418725,67.4429077 C96.6037342,67.0831999 96.7865113,66.6471811 96.7865113,66.1379284 C96.7865113,65.628368 96.6037342,65.1923492 96.2418725,64.8307951 C95.8821646,64.4689334 95.4461458,64.2892333 94.9368931,64.2892333" id="Fill-25"></path>
                        <path d="M96.0436178,69.3897917 L93.8281376,69.3897917 C93.5656648,69.3897917 93.3527325,69.5984161 93.3425782,69.8578119 L93.3425782,79.8625509 C93.3527325,80.1197928 93.5616646,80.3265709 93.8195219,80.3308788 L96.0528489,80.3308788 C96.3110139,80.3265709 96.5211768,80.1197928 96.530408,79.8625509 L96.530408,69.8578119 C96.519946,69.5984161 96.3070137,69.3897917 96.0436178,69.3897917" id="Fill-27"></path>
                        <path d="M113.96476,73.3866717 L110.274754,73.3866717 C110.144595,73.3857486 110.039975,73.2845134 110.032898,73.1562002 C110.061514,72.9835774 110.111363,72.8161856 110.187981,72.6527939 C110.293217,72.4192454 110.440915,72.2149289 110.632308,72.037075 C110.823393,71.8592212 111.053865,71.7155227 111.322492,71.6010562 C111.592042,71.488436 111.90344,71.4315105 112.258532,71.4315105 C112.83948,71.4315105 113.312732,71.6229033 113.68044,72.0050737 C113.994607,72.3315493 114.170307,72.7171044 114.205385,73.157431 C114.197077,73.2845134 114.093996,73.3857486 113.96476,73.3866717 M116.09439,70.6142445 C115.674987,70.1397625 115.164196,69.7742083 114.562939,69.5200434 C113.961683,69.2637247 113.291808,69.1375654 112.556391,69.1375654 C111.761588,69.1375654 111.014479,69.2637247 110.313833,69.5200434 C109.613187,69.7742083 109.003623,70.1397625 108.486985,70.6142445 C107.969424,71.0884188 107.562945,71.6589049 107.265702,72.3232412 C106.96815,72.9900392 106.819221,74.0408537 106.819221,74.8624276 C106.819221,75.6827707 106.96815,76.7335852 107.265702,77.3991524 C107.562945,78.0644118 107.969424,78.634898 108.486985,79.10938 C109.003623,79.5826311 109.613187,79.9481854 110.313833,80.2023502 C111.014479,80.4586689 111.761588,80.5869821 112.556391,80.5869821 C113.391196,80.5869821 114.199231,80.4091283 114.977419,80.0537284 C115.590984,79.7758702 116.119314,79.405085 116.564564,78.9407573 C116.731033,78.7536723 116.728879,78.4705832 116.557487,78.2856521 L115.109732,77.2256064 C115.108809,77.2246833 115.108809,77.2234525 115.106655,77.2234525 L115.003266,77.1480646 C114.817412,77.0428293 114.578325,77.0674458 114.420164,77.2256064 C114.214001,77.453924 113.986299,77.6511632 113.735211,77.8136318 C113.372426,78.0471803 112.930561,78.1647238 112.405615,78.1647238 C111.783435,78.1647238 111.260643,77.9831776 110.834779,77.6225466 C110.4483,77.2945325 110.080284,76.5671165 110.018436,75.7904676 C110.018436,75.6704625 110.105209,75.5732275 110.218752,75.5535343 L116.939657,75.5535343 C117.193822,75.5390722 117.398446,75.329217 117.398446,75.0701289 L117.398446,74.5544143 C117.398446,73.7337636 117.284903,72.9900392 117.059662,72.3232412 C116.832268,71.6589049 116.509792,71.0884188 116.09439,70.6142445" id="Fill-29"></path>
                        <g id="Group-33" transform="translate(0.000000, 65.233582)">
                            <path d="M8.98697208,12.0363651 L3.53873718,12.0363651 C3.42150136,12.0299033 3.32795887,11.9394378 3.31441982,11.8234328 L3.31441982,0.531253674 C3.3134967,0.275858047 3.1088725,0.0663105512 2.8550154,0.0518483892 L0.460450621,0.0518483892 C0.203516467,0.0663105512 -0.000184623344,0.275858047 -0.000184623344,0.536176963 L-0.000184623344,14.6090914 C-0.000184623344,14.8789492 0.217978629,15.0971124 0.487836417,15.0971124 L0.487836417,15.0980356 L8.97097139,15.0980356 L8.97097139,15.0971124 C9.23221342,15.0971124 9.44514568,14.8903343 9.45653079,14.6321693 L9.45653079,12.502539 C9.4463765,12.2489896 9.24236771,12.0455963 8.98697208,12.0363651" id="Fill-31"></path>
                        </g>
                        <g id="Group-36" transform="translate(39.078608, 0.000000)">
                            <path d="M27.3502869,0.689137404 C27.3502869,0.689137404 29.1066703,-0.597687307 31.0827555,0.689137404 C31.0827555,0.689137404 35.5706413,3.47048809 39.3317265,6.64877896 C39.3317265,6.64877896 40.0431418,7.14110788 40.0677583,6.29922543 C40.0677583,6.29922543 39.9495993,3.82096474 40.2483814,3.04123881 C40.2483814,3.04123881 40.5930117,2.00857891 41.626287,2.0467344 C41.626287,2.0467344 44.8482721,2.21074147 46.9209768,2.48459943 C46.9209768,2.48459943 48.3465767,2.63691369 48.5921258,4.30960119 C48.5921258,4.30960119 49.9152597,13.1342894 50.1857329,16.3135033 C50.1857329,16.3135033 50.441744,17.9332655 52.7839988,20.6770761 C52.7839988,20.6770761 57.5128181,27.3158239 58.0977664,28.6257265 C58.0977664,28.6257265 59.2128914,30.9353645 56.8312502,31.2406084 C56.8312502,31.2406084 52.4762932,31.680012 52.0691988,31.7547845 C52.0691988,31.7547845 51.0580782,31.7944785 51.0950029,32.9671444 C51.0950029,32.9671444 50.8688393,48.306575 49.7447909,55.6835084 C49.7447909,55.6835084 49.453086,58.6097884 47.8317853,58.5340929 C47.8317853,58.5340929 43.3626695,58.3885481 42.3269326,58.4202418 C42.3269326,58.4202418 41.8776824,58.4516278 41.948147,57.8217545 C41.948147,57.8217545 44.2162448,33.8890303 42.6761784,21.7823545 C42.6761784,21.7823545 42.6167912,20.2244412 41.4176626,19.8982733 C41.4176626,19.8982733 40.350232,19.4641007 39.2948019,20.8940085 C39.2948019,20.8940085 32.2188045,29.8839346 32.2298819,42.4663232 C32.2298819,42.4663232 32.1003378,46.2938728 32.6834399,47.2742228 C32.6834399,47.2742228 33.0406861,47.9419439 34.888458,48.0908734 L37.2297897,48.40381 C37.2297897,48.40381 37.6701164,48.4161182 37.6310378,48.9767577 C37.6310378,48.9767577 37.1054767,56.0105995 36.9427004,57.2426526 C36.9427004,57.2426526 36.9186994,57.7974457 36.7694622,58.0746885 C36.7694622,58.0746885 36.6793045,58.3100832 35.945119,58.2845437 C35.945119,58.2845437 25.6259048,58.2073096 24.4670856,58.2614657 C24.4670856,58.2614657 23.9787569,58.3131603 23.8725985,58.0113011 C23.7713633,57.7232887 23.1522597,48.944141 23.1734914,47.7000873 C23.1734914,47.7000873 23.1442594,47.2536065 23.5368917,47.0822145 C24.0113737,46.8757441 26.0096137,45.4033729 26.4016306,42.525095 C26.4016306,42.525095 26.5502524,41.7979867 26.4610178,38.5119989 C26.4610178,38.5119989 26.8376494,25.0440336 26.9351921,22.8860944 C26.9351921,22.8860944 27.0164263,22.154986 26.0637699,22.0146722 C26.0637699,22.0146722 25.1301912,21.8405109 24.989262,22.753781 C24.989262,22.753781 24.3190793,31.6381641 24.4538543,35.1724703 C24.4538543,35.1724703 24.6815564,37.4728771 23.0950265,37.5144174 C23.0950265,37.5144174 21.543575,37.7507353 21.4691102,35.837422 C21.4691102,35.837422 21.5792688,27.1967418 21.9571313,22.9325579 C21.9571313,22.9325579 22.0165185,22.1808332 21.1115564,22.0054411 C21.1115564,22.0054411 20.1825932,21.82051 20.0065856,22.8584009 C20.0065856,22.8584009 19.3410185,31.1190647 19.4844093,35.4801759 C19.4844093,35.4801759 19.6794946,37.5956517 17.9917295,37.5187253 C17.9917295,37.5187253 16.5830534,37.685194 16.5002806,35.8044975 C16.5002806,35.8044975 16.8904513,23.9802954 16.9864554,23.0627174 C16.9864554,23.0627174 17.0769209,22.0888293 16.0670312,22.0042102 C16.0670312,22.0042102 15.1531456,21.8835896 15.0362175,22.8793249 C15.0362175,22.8793249 14.4072673,37.0177806 14.5134257,41.170575 C14.5134257,41.170575 14.4558848,45.4402976 17.6070976,47.175757 C17.6070976,47.175757 18.0714253,47.44223 18.0837335,47.8505553 C18.0837335,47.8505553 18.4394412,55.3521095 18.7579164,57.7700599 C18.7579164,57.7700599 18.8791524,58.347931 18.3612839,58.3519312 C18.3612839,58.3519312 11.6293014,58.5273234 10.4264803,58.5651711 C10.4264803,58.5651711 9.11134667,58.6587136 8.82733443,57.024797 C8.56455387,55.5121164 7.11187585,42.9703449 7.34973226,33.0646871 C7.34973226,33.0646871 7.43588982,31.9350999 6.38353676,31.7621694 C6.38353676,31.7621694 2.32366941,31.3855378 1.34178093,31.1390656 C1.34178093,31.1390656 -0.549069827,30.6008886 0.310659548,28.6552662 C0.310659548,28.6552662 9.12211637,11.9887015 27.3502869,0.689137404" id="Fill-34"></path>
                        </g>
                    </g>
                    <g id="Group-44" transform="translate(120.620585, 64.193229)">
                        <g id="Group-40">
                            <path d="M8.90915334,12.7960286 C8.74391545,13.2492789 8.50421281,13.6428344 8.18850689,13.9791565 C7.8743395,14.3167096 7.49770787,14.5822595 7.05984284,14.7767294 C6.62197781,14.9690454 6.13087971,15.066588 5.58593314,15.066588 C5.04067886,15.066588 4.54927306,14.9690454 4.11140803,14.7767294 C3.67631235,14.5822595 3.29906531,14.3167096 2.98335939,13.9791565 C2.66703806,13.6428344 2.42733542,13.2492789 2.26148212,12.7960286 C2.09747505,12.3455477 2.01624077,11.4236618 2.01624077,10.8925619 C2.01624077,10.3630006 2.09747505,9.44111474 2.26148212,8.98940295 C2.42733542,8.53646035 2.66703806,8.1416741 2.98335939,7.80535191 C3.29906531,7.46779889 3.67631235,7.20409521 4.11140803,7.00931759 C4.54927306,6.81546307 5.04067886,6.71884352 5.58593314,6.71884352 C6.13087971,6.71884352 6.62197781,6.81546307 7.05984284,7.00931759 C7.49770787,7.20409521 7.8743395,7.46779889 8.18850689,7.80535191 C8.50421281,8.1416741 8.74391545,8.53646035 8.90915334,8.98940295 C9.07316041,9.44111474 9.15716403,10.3630006 9.15716403,10.8925619 C9.15716403,11.4236618 9.07316041,12.3455477 8.90915334,12.7960286 M10.3458307,0.0933271006 L9.64487737,0.0933271006 C9.37501958,0.0933271006 9.15716403,0.312105764 9.15716403,0.581655847 L9.15716403,6.51637326 C9.14639434,6.60253082 9.07439123,6.66868751 8.98607973,6.66868751 C8.94392407,6.66868751 8.90546087,6.65360994 8.87561343,6.62807038 C8.86945932,6.62130086 8.8626898,6.61391592 8.85315093,6.6071464 C8.85007387,6.60129999 8.84515058,6.59760753 8.84145811,6.59206883 C8.82299578,6.57452961 8.79991786,6.54991316 8.77314748,6.52314278 C8.39682356,6.15297297 7.97680545,5.85172922 7.5103238,5.62218086 C6.90168218,5.32062939 6.23088402,5.17046907 5.49885246,5.17046907 C4.71112619,5.17046907 3.98955662,5.30216706 3.33629769,5.56802468 C2.6855004,5.83295918 2.1279379,6.20312898 1.66914889,6.67576474 C1.21220611,7.14870821 0.852498293,7.70873236 0.59617955,8.35460636 C0.336783751,8.99955724 0.20754741,10.1325292 0.20754741,10.8925619 C0.20754741,11.6529024 0.336783751,12.7858743 0.59617955,13.4308252 C0.852498293,14.0757761 1.20882135,14.6370311 1.66022543,15.1096668 C2.11039868,15.5823026 2.64611408,15.9512416 3.26275606,16.2180223 C3.87878261,16.4820337 4.53881107,16.6161933 5.24068749,16.6161933 C6.14503417,16.6161933 6.93891455,16.4180309 7.61863616,16.0247832 C8.08727175,15.7521561 8.46913437,15.4367578 8.76483943,15.0795117 L8.76699337,15.0795117 C8.78114782,15.0607416 8.79745622,15.0398177 8.81345691,15.0201245 C8.82761136,15.0025853 8.84268894,14.9838152 8.85561257,14.9665837 C8.88822936,14.9305822 8.93346208,14.9068889 8.98607973,14.9068889 C9.07439123,14.9068889 9.14762516,14.9745841 9.15716403,15.0628956 L9.15716403,15.8672379 C9.15716403,16.1361726 9.37501958,16.355259 9.64487737,16.355259 L9.64487737,16.3577206 L10.3458307,16.3577206 L10.3458307,16.355259 C10.6147653,16.355259 10.833544,16.1361726 10.833544,15.8684688 L10.833544,0.580425025 C10.833544,0.311490353 10.6147653,0.0933271006 10.3458307,0.0933271006" id="Fill-38"></path>
                        </g>
                        <g id="Group-43" transform="translate(11.692812, 4.923289)">
                            <path d="M8.09268737,4.88101044 L2.23643488,4.88101044 C2.11981447,4.86562516 2.03027215,4.76931332 2.02657968,4.64930814 C2.16873966,3.85635088 2.50044627,3.0406234 3.02323804,2.56983387 C3.59618582,2.05381163 4.34914136,1.79564665 5.28056613,1.79564665 C6.21476025,1.79564665 6.94494558,2.05381163 7.47573769,2.56983387 C7.95975856,3.0406234 8.23484735,3.86004335 8.30100404,4.65146208 C8.29515764,4.77054414 8.20653843,4.86562516 8.09268737,4.88101044 M9.77891392,3.29078803 C9.54844244,2.63875992 9.22258224,2.08612071 8.79948707,1.63379352 C8.37669962,1.18085091 7.87021624,0.837451491 7.28249859,0.602364432 C6.69447324,0.364815729 6.04829154,0.246964494 5.34579971,0.246964494 C4.60053681,0.246964494 3.91158403,0.375585424 3.28171072,0.633750401 C2.64968347,0.892223083 2.1047369,1.25439254 1.6465633,1.72087419 C1.18685117,2.18612502 0.829604998,2.74584146 0.571132316,3.39848498 C0.312659634,4.0508208 0.188961993,5.0717879 0.188961993,5.84597512 C0.188961993,6.57831439 0.303428467,7.81929097 0.53820782,8.46547267 C0.775756523,9.11073126 1.11207872,9.66952459 1.54994375,10.1433912 C1.98719337,10.6160269 2.52044713,10.9917354 3.15247438,11.2723629 C3.7832708,11.5520673 4.49376298,11.6917656 5.28056613,11.6917656 C6.228607,11.6917656 7.06002746,11.5379128 7.77851998,11.2295918 C8.37546879,10.97235 8.93303129,10.5507933 9.45182289,9.9686144 C9.60198321,9.76860578 9.57305889,9.49013224 9.39366654,9.32150958 L8.82748828,8.88025979 C8.64563429,8.75317739 8.40347,8.76610102 8.23823211,8.90333771 C7.90160221,9.26550717 7.53389405,9.54951941 7.13233827,9.75568215 C6.63047048,10.0141548 6.01444392,10.1433912 5.28056613,10.1433912 C4.82300794,10.1433912 4.40052819,10.0569259 4.01281916,9.88491849 C3.62634096,9.71383419 3.28755712,9.47967025 3.00108324,9.18611913 C2.71460935,8.89164489 2.48198393,8.54824547 2.30289929,8.1522284 C2.13950763,7.79498223 2.01488687,7.31742318 1.9942706,6.54108201 C1.9942706,6.41769208 2.0884285,6.31645694 2.20843368,6.30107167 L9.63583082,6.30107167 L9.63583082,6.29984084 C9.90107303,6.29984084 10.1176978,6.08813941 10.122621,5.82382032 L10.122621,5.76320232 C10.122621,4.93085874 10.0084623,3.94373926 9.77891392,3.29078803" id="Fill-41"></path>
                        </g>
                    </g>
                </g>
            </g>
        </g>
    </g>
</svg>